<?xml version="1.0" encoding="UTF-8"?>
<svg id="Layer_1_kopie" data-name="Layer 1 kopie" xmlns="http://www.w3.org/2000/svg" viewBox="0 0 547.05 372.67">
  <defs>
    <style>
      .cls-1 {
        fill: #231f20;
        fill-rule: evenodd;
      }
    </style>
  </defs>
  <path class="cls-1" d="M224.58,363.73l-1.22,2.97-2.63,1.05-216.15,1.86-1.56-.43-.92-.86-.55-2.55L0,208.92l.93-1.06,1.56-.63,109.07-.46,2.41.72,1.41,1.21.63,1.63.13,1.84.41,2.2,1.05,1.71,1.84,1.14,2.55.72,47.62-.38,2.98-1.47,1.14-1.55.79-2.33.3-2.34.86-1.98,1.85-1.34,3.26-.41,48.66,5.02,2.47,1.15.84,2.27-8.19,149.13h0ZM83.39,264.09l.54,5.32,1.53,5.04,2.46,4.55,3.24,3.92,3.88,3.28,4.52,2.51,5.02,1.59,5.31.6,68.24.38,5.32-.54,5.04-1.53,4.55-2.46,3.92-3.24,3.28-3.88,2.51-4.52,1.59-5.02.6-5.31.07-13.61-.54-5.39-1.53-4.97-2.46-4.55-3.24-3.99-3.88-3.28-4.52-2.5-5.02-1.59-5.31-.53-68.24-.38-5.32.47-5.04,1.53-4.55,2.45-3.92,3.24-3.28,3.95-2.51,4.52-1.59,4.95-.6,5.38-.07,13.61h0ZM6.93,289.61l.7,1.78,1.84.79,8.36.05,1.78-.77.79-1.77.05-8.72-.77-1.78-1.77-.79-8.36-.05-1.85.77-.72,1.77-.05,8.72h0ZM159.01,265.1c-.68,4.67-2.26,8.12-4.74,10.34-2.46,2.24-5.54,3.34-9.23,3.32-4.56-.03-8.26-1.73-11.1-5.1-2.82-3.37-4.21-8.76-4.17-16.18.04-7.31,1.54-12.63,4.51-16.01,2.98-3.36,6.83-5.02,11.55-5,3.12.02,5.78.97,7.97,2.85,2.21,1.89,3.72,4.69,4.57,8.4l9.06-1.33c-1.03-5.58-3.46-9.91-7.26-12.96-3.78-3.06-8.69-4.59-14.67-4.63-4.76-.03-9.15,1.07-13.19,3.28-4.06,2.2-7.08,5.54-9.07,9.98-1.99,4.46-3.02,9.66-3.05,15.62-.05,9.2,2.2,16.27,6.77,21.24,4.55,4.96,10.61,7.46,18.16,7.5,6.02.03,11.12-1.71,15.28-5.26,4.16-3.55,6.74-8.45,7.79-14.75l-9.15-1.33Z"/>
  <path class="cls-1" d="M465.27,201.32l-.5.43h-28.35l-.43-.43v-10.7l.43-.5h28.35l.5.5v10.7h0ZM546.77,189.13h-10.2v89.72l-.14,2.06-.64,1.63-1.49.99-2.76.35h-30.97l-1.77-.35-1.28-.71-.78-1.13-.28-1.42.5-91.13h-76.96l6.66,9.64,3.47,6.31,3.19,7.23,2.83,8.01,2.2,8.79,1.35,9.5.35,10.06-.64,8.65-1.42,8.43-2.27,8.22-2.98,8.01-3.76,7.65-4.46,7.3-5.1,6.87-5.67,6.38-6.31,5.88-6.8,5.24-7.37,4.61-7.8,3.9-8.29,3.12-8.65,2.27-9.07,1.42-9.35.5-9.43-.5-9.28-1.35-9.07-2.27-8.72-3.05-8.29-3.83-7.65-4.54-6.94-5.24-6.17-5.81-4.89,3.76-3.47,2.48-3.9,1.63-2.55.14-2.55-.35-4.68-2.2-4.68-4.39-4.25-5.88-2.13-4.39-1.49-4.89.14-4.89.85-2.27,1.49-2.06,3.33-2.62,3.61-2.41,4.54-3.12-2.13-5.95-1.91-7.02-1.42-7.94-.64-8.93.28-10.2,1.13-9.35,1.84-8.43,2.48-7.72,2.98-6.94,3.4-6.24,7.51-10.7-41.6-.5-.28,11.06-.71,5.6-1.49,4.82.28,157.75h231.87l5.03.57,3.12,1.42-.92-11.34h5.46l3.68-.43,3.26-1.06,2.76-1.63,2.27-2.13,3.12-5.32.85-3.12.21-3.33.28,4.04-.85,9.78-2.69,9.43-3.26,7.02,15.38.43h43.51l.28-14.1-.28-169.44Z"/>
  <polygon class="cls-1" points="500.35 282.6 533.23 282.6 535 281.89 535.71 280.12 535.71 210.53 532.59 210.32 531.11 209.25 530.75 207.41 530.75 204.93 530.75 188.42 497.87 188.42 497.87 280.12 498.58 281.89 500.35 282.6"/>
  <path class="cls-1" d="M426.01,253.97l-.71,7.72-1.49,7.51-2.2,7.23-2.83,6.87-3.47,6.59-4.04,6.17-4.54,5.74-5.1,5.32-5.53,4.82-5.95,4.32-6.38,3.76-6.73,3.12-7.09,2.48-7.37,1.84-7.58,1.13-7.87.35-8.08-.35-7.87-1.2-7.51-1.98-7.3-2.62-6.87-3.33-6.52-3.97-6.09-4.54-5.6-5.1-5.1-5.6-4.54-6.09-3.97-6.52-3.33-6.87-2.69-7.3-1.91-7.58-1.2-7.8-.43-8.08.43-8.08,1.2-7.87,1.91-7.58,2.69-7.23,3.33-6.94,3.97-6.52,4.54-6.09,5.1-5.6,5.6-5.1,6.09-4.54,6.52-3.97,6.87-3.33,7.3-2.62,7.51-1.98,7.87-1.13,8.08-.43,7.87.35,7.58,1.13,7.37,1.84,7.09,2.48,6.73,3.12,6.38,3.76,5.95,4.32,5.53,4.82,5.1,5.31,4.54,5.74,4.04,6.17,3.47,6.59,2.83,6.87,2.2,7.23,1.49,7.51.71,7.72h-4.96l-1.56.28-1.28.85-.92,1.35-.28,1.56.28,1.56.92,1.28,1.28.85,1.56.28h4.96ZM329.49,247.02h-3.83v-3.61h-9.35l-2.55.57-1.7,1.13-.78,1.98v9.5h9.43l2.55-.5,1.7-.92.78-1.49h3.69l2.27,1.7,1.91.71,2.91.43,3.19-.35,2.27-1.06,1.84-1.77,2.55.07v2.62l7.23.07.14-2.76,3.12-.07,3.33,2.76,2.48-.07-.14-2.83,8.15-.07.07,2.76h8.29l-.21-2.34-2.2-.14-.07-2.62,4.32-4.96h2.13v-2.13l-6.59-.07.07,1.91h-2.98l-.14-2.06-15.66.14v3.05l-2.48.07-2.83-2.91h-6.02l.21,3.12-2.06.07-3.19-2.48-2.48-.85-2.98-.28-2.76.64-1.98,1.28-1.63,1.77Z"/>
  <path class="cls-1" d="M339.51,112.54l-1.77.28-1.42.85-.92,1.35-.35,1.98.35,1.91.92,1.35,1.42.85,1.77.28,1.7-.28,1.42-.85.92-1.35.35-1.91-.35-1.98-.92-1.35-1.42-.85-1.7-.28h0ZM272.33,74.41l-.07,15.73-.78,1.28-1.49.35-1.35-.78-.35-1.49.07-15.73.78-1.28,1.49-.35,1.35.78.35,1.49h0ZM271.76,65.62l-4.39-.35-.78-.99,1.06-.78,4.32.43.78.99-.99.71h0ZM322.43,122.74l-2.48-.35-2.34-.78-.43.07-.21.71h-1.56v-3.97h1.35l.92,1.42,1.42.92,3.33.57,2.62-.43.71-1.06-.78-.85-2.91-.57-2.34-.35-3.19-.92-.85-.85-.35-1.35.43-1.49,1.2-1.06,1.91-.71,2.55-.28,2.27.21,2.06.78.43.07.21-.71h1.63v3.76h-1.49l-.71-1.28-1.2-.92-3.12-.71-2.48.43-1.06,1.13.5.71,1.2.43,3.61.57,3.68.92,1.2.92.43,1.42-.35,1.56-1.2,1.13-1.91.64-2.69.28h0ZM339.51,122.67l-3.47-.5-2.41-1.2-1.49-1.77-.5-2.2.5-2.2,1.49-1.84,2.48-1.2,3.4-.43,3.4.43,2.41,1.2,1.49,1.84.57,2.2-.5,2.2-1.49,1.77-2.48,1.2-3.4.5h0ZM365.45,113.17h-.85l-.85.14-.21.57v8.57h-2.41l-7.94-7.51-.07,5.46.28.64.92.21h1.06v1.2h-6.38v-1.28h.99l.92-.21.21-.57v-6.52l-.21-.57-.92-.14h-.99v-1.28h5.46l6.87,6.38v-4.39l-.28-.57-.85-.14h-.92v-1.28h6.17v1.28h0ZM382.6,113.1h-.71l-.92.28-1.2,1.35-3.26,3.47v2.13l.28.57.78.21h1.2v1.28h-7.65v-1.28h1.13l.85-.14.28-.57v-2.2l-3.9-4.18-.71-.71-1.56-.21v-1.28h7.02v1.28h-.5l-.71.28.21.43,1.98,2.2h.78l2.13-2.27.14-.43-.57-.21h-.64v-1.28h5.53v1.28h0ZM428.59,92.06l-1.49-.35-.85-1.28-.14-16.3.35-1.49,1.35-.78,1.49.35.78,1.28.14,16.3-.35,1.49-1.28.78h0ZM284.31,30.54V11.69l-.35-5.88-1.06-5.74,4.25,2.41,3.4,3.12,2.41,3.97,1.49,4.82.85,13.04.64,2.91,1.49,1.91,5.31.71,2.62.14,10.7.07-.21,43.3.21,2.69.99,1.7,2.27.85,3.97.14,25.72-.28,25.87.28,4.04-.21,2.34-1.06,1.06-1.91.21-2.76-.14-43.02,9,.5h5.24l7.37-.85v-13.82l.28-3.12.78-3.19,1.42-2.98,4.11-4.89,5.53-3.33,3.19-.92,3.4-.28h8.5l3.76.43,3.47,1.06,3.19,1.7,2.76,2.34,2.27,2.76,1.77,3.19,1.06,3.47.43,3.76v18.35h-.07l-.5,63.78.14,2.2.92,1.2,1.42.5,3.05.14,13.46-.07-1.42,2.91-28.06,9.21-2.91.5-2.48-.35-4.18-2.13-34.23-22.25-2.83-1.06-2.41-.14h-1.49l2.41.28,2.06.92,1.63,1.56,1.13,2.48,11.55,42.16,10.63,32.1h-15.24l-6.17-4.46-11.27-6.38-11.98-4.54-12.33-2.69-12.54-.85-12.54.99-12.33,2.83-11.91,4.75-11.2,6.52-5.74,4.11h-14.03l10.06-31.39,12.26-43.16,1.06-2.13,1.56-1.63,2.06-1.06,2.34-.43h-1.2l-2.41.21-3.05.99-34.8,22.25-3.97,2.13-2.27.35-2.76-.5-27.78-8.65-1.49-3.47,14.03.07,2.98-.21,1.28-.57.92-1.2.14-2.06-.71-56.27,32.24.78,2.2-.85.85-2.2-.07-11.76h.35Z"/>
  <path class="cls-1" d="M460.17,182.06l-.92.57-2.41.07-1.91-1.56-1.42-2.13-2.83,2.69-3.61,1.13-2.2-.21-1.98-.99-1.28-1.49-.5-1.91.14-1.91.71-1.84,2.48-2.84,3.19-1.98,2.55-.5,1.77.28,1.49.71,1.56,2.2,1.63-2.06,3.19.28-4.04,5.46,1.06,3.26.92,1.63,1.84.43,1.2.07-.64.64h0ZM547.05,167.46h-20.62l-.43,3.69-1.7,3.69-3.26,2.76-2.41.85-2.83.28-2.83-.28-2.27-.78-3.26-2.69-1.63-3.68-.35-3.76.64-3.4,1.77-3.19,3.19-2.27,4.75-.92,4.46.85,3.26,2.27,2.13,3.12.78,3.33h20.62v-14.53l-69.09.43-63.35.14,5.88,17.86-16.65.35,16.44,15.66,2.55,1.06h124.23v-20.83h0ZM445.57,173.69l-1.77,3.61v1.56l.57,1.13,1.35.57,1.7-.14,3.33-2.2,1.77-1.98v-2.27l-.85-2.06-1.49-.64-1.7.35-2.91,2.06Z"/>
  <path class="cls-1" d="M207.06,257.23l-.02,1.98-.93,8.14-2.41,7.56-3.82,6.84-5.02,5.98-6.07,4.9-6.91,3.69-7.61,2.34-8.16.7-44.64-.43-8.14-.86-7.56-2.48-6.84-3.82-5.98-5.02-4.9-6.07-3.69-6.91-2.27-7.6-.77-8.16.02-1.98.93-8.14,2.41-7.56,3.82-6.91,5.02-5.9,6.07-4.9,6.91-3.69,7.6-2.34,8.16-.7,44.64.43,8.14.86,7.56,2.48,6.84,3.82,5.98,5.02,4.9,6,3.69,6.98,2.27,7.6.77,8.16h0ZM149.66,249.45l-.4-2.34-1.33-1.86-1.83-1.36-2.33-.45-2.34.4-1.93,1.33-1.29,1.83-.52,2.33-.15,16.23.47,2.34,1.26,1.93,1.9,1.29,2.33.52,2.34-.47,1.85-1.26,1.36-1.9.45-2.33.15-16.23Z"/>
  <path class="cls-1" d="M253.93,170.54l-2.26-.48-1.81-1.32-1.23-1.87-.37-2.28.48-2.26,1.32-1.88,1.87-1.16,2.28-.44,2.25.55,1.88,1.25,1.15,1.94.44,2.28-.55,2.25-1.25,1.81-1.95,1.23-2.28.37h0ZM235.36,153.97l-104.78-2.7-.1,3.97,104.78,2.7,1.06.03-.78,30.39,41.44,1.07,5.78-7.15,3.79-4.08,5.37-4.97-8.86-.23-2.34-.13-1.69-.47-.97-.95-.4-1.07.42-2.4.76-2.04,4.68-11.01-47.12-.93-1.06-.03Z"/>
  <path class="cls-1" d="M34.57,175.82l-1.63,1.98-2.55.21-9.14-2.55-1.2-.64-.85-1.06-.43-1.28.14-1.42,1.63-1.98,2.55-.28,9.14,2.55,1.28.71.85,1.06.35,1.28-.14,1.42h0ZM215.06,140.03l-40.54,38.41-6.38,5.17-6.94,4.39-7.44,3.47-7.87,2.48-1.84.43-10.98,1.42-9.21-.28-7.37-1.28-5.46-1.49-12.12-4.68-14.31-7.37-30.19-17.57-5.81-3.54-2.55-2.05-1.77-2.34-.71-3.19-24.94-7.37-1.13,2.98,2.13,2.48.99,3.33v3.69l-.85,3.54-2.06,2.98-3.05,1.98-3.76.92-4.11-.14-.57,1.06,3.76,3.83.5,1.98-1.2,5.24,9.71,3.19,23.74,7.16,29.69,7.72,14.67,2.98,13.11,1.77,2.55.21,9.35.78,6.52.21-.07-1.77,5.6.14,7.51-.57,9.07-1.2,12.19-2.48,4.32-1.28,12.9-3.83.14,1.35,3.05-.99,22.18-9.07,15.02-7.02,16.02-8.36-11.48-27.43Z"/>
</svg>